<svg width="607" height="608" viewBox="0 0 607 608" fill="none" xmlns="http://www.w3.org/2000/svg">
<path d="M138.208 217.561C123.624 261.348 111.422 305.565 100.733 351.185C90.4759 394.959 81.5528 440.487 73.2041 488.485C143.006 528.33 223.054 548.262 303.287 548.262C383.519 548.262 463.567 528.333 533.369 488.485C525.02 440.487 516.097 394.959 505.84 351.185C495.162 305.613 482.977 261.44 468.413 217.701C425.887 203.35 364.496 196.115 302.636 196.115C240.777 196.115 180.299 203.225 138.208 217.561ZM46.2945 336.997C58.4994 284.903 72.6576 234.428 89.9855 184.167L94.3546 171.491L106.229 166.602C155.02 146.516 229.155 136.561 302.636 136.561C376.118 136.561 451.329 146.596 500.235 166.483L512.165 171.336L516.588 184.164C533.915 234.425 548.071 284.9 560.276 336.994C572.537 389.319 582.755 442.693 592.191 498.746L595.565 518.797L578.91 529.337C496.25 581.651 399.662 607.811 303.287 607.811C206.911 607.811 110.326 581.651 27.6607 529.337L11.0054 518.797L14.3796 498.746C23.8157 442.693 34.0336 389.319 46.2945 336.994V336.997Z" fill="#07115E"/>
<path fill-rule="evenodd" clip-rule="evenodd" d="M116.326 194.286C82.4159 292.64 60.8339 392.215 42.0403 503.866C198.302 602.759 408.274 602.759 564.533 503.866C545.739 392.215 524.157 292.64 490.247 194.286C399.177 157.25 207.391 156.795 116.326 194.286Z" fill="#46BEFA"/>
<path fill-rule="evenodd" clip-rule="evenodd" d="M125.538 202.287C93.1523 296.219 72.5399 391.315 54.5927 497.944C129.206 545.167 216.647 568.776 304.088 568.776C189.418 477.395 218.567 242.503 304.088 175.595C236.556 175.539 169.022 184.384 125.538 202.287Z" fill="#326BD6"/>
<path fill-rule="evenodd" clip-rule="evenodd" d="M151.394 237.327C123.843 310.516 106.307 384.612 91.0364 467.695C149.794 501.752 215.888 522.266 303.287 522.266C390.685 522.266 456.782 501.752 515.537 467.695C500.269 384.612 482.733 310.516 455.182 237.327C381.176 214.048 225.397 213.674 151.391 237.327H151.394Z" fill="#07115E"/>
<path fill-rule="evenodd" clip-rule="evenodd" d="M221.571 300.837C247.679 300.837 268.844 332.248 268.844 370.995C268.844 409.741 247.679 441.152 221.571 441.152C195.463 441.152 174.299 409.741 174.299 370.995C174.299 332.248 195.463 300.837 221.571 300.837Z" fill="#FCD421"/>
<path fill-rule="evenodd" clip-rule="evenodd" d="M385.005 300.837C411.113 300.837 432.277 332.248 432.277 370.995C432.277 409.741 411.113 441.152 385.005 441.152C358.897 441.152 337.732 409.741 337.732 370.995C337.732 332.248 358.897 300.837 385.005 300.837Z" fill="#FCD421"/>
<path fill-rule="evenodd" clip-rule="evenodd" d="M280.6 82.9877H297.432H309.144H325.973L340.613 154.345H309.144H297.432H265.963L280.6 82.9877Z" fill="#07115E"/>
<path fill-rule="evenodd" clip-rule="evenodd" d="M303.289 0C331.583 0 354.519 24.3065 354.519 54.2916C354.519 84.2767 331.583 108.583 303.289 108.583C274.995 108.583 252.06 84.2767 252.06 54.2916C252.06 24.3065 274.995 0 303.289 0Z" fill="#07115E"/>
<path fill-rule="evenodd" clip-rule="evenodd" d="M320.155 19.2604C330.334 19.2604 338.584 28.0041 338.584 38.7941C338.584 49.5841 330.334 58.3278 320.155 58.3278C309.976 58.3278 301.723 49.5812 301.723 38.7941C301.723 28.0071 309.973 19.2604 320.155 19.2604Z" fill="#46BEFA"/>
<path fill-rule="evenodd" clip-rule="evenodd" d="M32.9546 254.942C48.0993 252.848 63.2412 250.754 78.3887 248.66C64.777 310.05 51.1681 371.44 37.5535 432.827C25.0347 423.082 12.5188 413.332 0 403.584C8.71017 352.634 18.617 302.417 32.9546 254.942Z" fill="#07115E"/>
<path fill-rule="evenodd" clip-rule="evenodd" d="M573.624 254.942C558.479 252.848 543.335 250.754 528.19 248.66C541.799 310.05 555.411 371.44 569.025 432.827C581.544 423.082 594.06 413.332 606.579 403.584C597.868 352.634 587.962 302.417 573.624 254.942Z" fill="#07115E"/>
<path fill-rule="evenodd" clip-rule="evenodd" d="M154.182 31.4196L188.729 10.9742L225.727 71.1018L204.067 79.9524L242.831 120.202L166.446 79.9049L193.358 64.4134L154.182 31.4196Z" fill="#07115E"/>
<path fill-rule="evenodd" clip-rule="evenodd" d="M446.405 58.1081L424.343 35.5034L385.767 83.0382L400.323 93.7421L364.048 123.65L428.415 98.8416L411.149 81.6126L446.405 58.1081Z" fill="#07115E"/>
</svg>
